<svg width="424" height="82" viewBox="0 0 424 82" fill="none" xmlns="http://www.w3.org/2000/svg">
<path fill-rule="evenodd" clip-rule="evenodd" d="M423.589 1.58514L423.999 0L422.418 0.355489C422.406 0.357874 422.395 0.360465 422.383 0.363262L416.907 1.59443C416.368 1.71556 416.029 2.25057 416.151 2.78941C416.272 3.32825 416.807 3.66686 417.345 3.54573L419.377 3.089C419.013 3.43883 418.648 3.78725 418.283 4.1343C417.882 4.51479 417.866 5.14775 418.247 5.54805C418.627 5.94836 419.26 5.96443 419.661 5.58393C420.028 5.23489 420.395 4.88446 420.761 4.53264L420.279 6.39626C420.141 6.93095 420.462 7.47651 420.997 7.6148C421.532 7.75308 422.077 7.43173 422.216 6.89704L423.589 1.58514ZM406.355 6.01638C406.894 5.89525 407.233 5.36024 407.112 4.8214C406.99 4.28256 406.455 3.94395 405.917 4.06508L400.421 5.3004C399.883 5.42153 399.544 5.95654 399.665 6.49538C399.786 7.03422 400.321 7.37284 400.86 7.2517L406.355 6.01638ZM419.468 17.5208C419.606 16.9861 419.285 16.4406 418.75 16.3023C418.216 16.164 417.67 16.4854 417.532 17.02L416.158 22.3319C416.02 22.8666 416.341 23.4122 416.876 23.5505C417.41 23.6888 417.956 23.3674 418.094 22.8327L419.468 17.5208ZM1.60346 0.538055C1.16343 0.2043 0.53615 0.290453 0.202395 0.730482C-0.13136 1.17051 -0.0452073 1.79779 0.394822 2.13154C1.68607 3.11093 3.00786 4.09657 4.35947 5.08737C4.8049 5.41389 5.43068 5.3175 5.7572 4.87208C6.08372 4.42665 5.98733 3.80087 5.5419 3.47435C4.19892 2.48987 2.88588 1.51075 1.60346 0.538055ZM13.6841 9.25177C13.2289 8.93891 12.6064 9.05424 12.2935 9.50936C11.9806 9.96449 12.096 10.5871 12.5511 10.8999C15.2409 12.7489 18.0269 14.6085 20.9047 16.4718C21.3683 16.7719 21.9874 16.6395 22.2876 16.1759C22.5878 15.7123 22.4553 15.0931 21.9917 14.793C19.1292 12.9395 16.3585 11.0902 13.6841 9.25177ZM412.281 12.3776C412.694 12.0101 412.73 11.378 412.363 10.9657C411.995 10.5535 411.363 10.5172 410.951 10.8847C408.441 13.1216 405.919 15.2956 403.386 17.4076C402.962 17.7613 402.904 18.3919 403.258 18.8161C403.612 19.2403 404.242 19.2975 404.666 18.9438C407.217 16.8175 409.756 14.6292 412.281 12.3776ZM30.4478 20.1131C29.9767 19.825 29.3611 19.9735 29.073 20.4446C28.7849 20.9158 28.9333 21.5313 29.4045 21.8195C32.21 23.5349 35.0898 25.2482 38.0404 26.9541C38.5185 27.2306 39.1302 27.0671 39.4066 26.5889C39.683 26.1108 39.5195 25.4991 39.0414 25.2227C36.105 23.5249 33.2393 21.82 30.4478 20.1131ZM396.873 25.2211C397.309 24.882 397.387 24.2537 397.048 23.8178C396.709 23.3818 396.081 23.3033 395.645 23.6423C392.987 25.7092 390.318 27.7106 387.638 29.6479C387.19 29.9714 387.089 30.5966 387.413 31.0442C387.736 31.4918 388.362 31.5924 388.809 31.2688C391.508 29.3178 394.197 27.3023 396.873 25.2211ZM47.764 30.1277C47.2795 29.8627 46.6719 30.0407 46.4069 30.5253C46.1419 31.0099 46.3199 31.6175 46.8045 31.8825C49.7014 33.4667 52.6581 35.04 55.6715 36.5981C56.1621 36.8518 56.7655 36.6597 57.0191 36.1691C57.2728 35.6785 57.0807 35.0752 56.5901 34.8215C53.5905 33.2706 50.6475 31.7046 47.764 30.1277ZM380.619 36.9702C381.078 36.6628 381.201 36.0417 380.893 35.5828C380.586 35.124 379.965 35.0012 379.506 35.3086C376.705 37.1848 373.894 38.9936 371.073 40.7365C370.603 41.0268 370.457 41.643 370.747 42.1128C371.038 42.5827 371.654 42.7282 372.124 42.438C374.966 40.6822 377.798 38.8601 380.619 36.9702ZM65.4911 39.2953C64.9949 39.053 64.3961 39.2588 64.1537 39.7551C63.9114 40.2513 64.1172 40.8501 64.6134 41.0925C67.5844 42.5435 70.6045 43.9769 73.6711 45.389C74.1728 45.62 74.7667 45.4006 74.9977 44.8989C75.2287 44.3973 75.0093 43.8034 74.5076 43.5724C71.4549 42.1667 68.4486 40.7398 65.4911 39.2953ZM363.504 47.5448C363.984 47.2722 364.153 46.6618 363.88 46.1815C363.607 45.7012 362.997 45.5328 362.517 45.8054C359.602 47.4593 356.679 49.0454 353.747 50.5653C353.257 50.8195 353.065 51.4231 353.32 51.9134C353.574 52.4037 354.177 52.5951 354.668 52.3409C357.622 50.8093 360.568 49.2112 363.504 47.5448ZM83.6341 47.6491C83.1273 47.4296 82.5385 47.6625 82.319 48.1693C82.0996 48.6762 82.3325 49.2649 82.8393 49.4844C85.8896 50.8053 88.9812 52.1028 92.1121 53.3737C92.6238 53.5814 93.207 53.335 93.4148 52.8232C93.6225 52.3115 93.376 51.7283 92.8643 51.5205C89.7479 50.2555 86.6704 48.9639 83.6341 47.6491ZM345.656 56.7966C346.156 56.5613 346.37 55.9656 346.135 55.4659C345.9 54.9662 345.304 54.7518 344.804 54.9871C341.789 56.4065 338.766 57.7584 335.738 59.0446C335.229 59.2605 334.992 59.8476 335.208 60.3559C335.424 60.8643 336.011 61.1014 336.519 60.8855C339.572 59.5893 342.618 58.2269 345.656 56.7966ZM102.148 55.164C101.631 54.9683 101.054 55.2282 100.858 55.7446C100.662 56.261 100.922 56.8384 101.439 57.0342C104.543 58.2109 107.682 59.3596 110.853 60.477C111.374 60.6605 111.945 60.387 112.129 59.8661C112.312 59.3452 112.039 58.7742 111.518 58.5907C108.361 57.4785 105.237 56.3353 102.148 55.164ZM120.982 61.7982C120.457 61.6272 119.893 61.9144 119.722 62.4396C119.551 62.9647 119.838 63.529 120.363 63.7C123.533 64.7316 126.732 65.7303 129.959 66.6934C130.488 66.8513 131.045 66.5503 131.203 66.0211C131.361 65.4919 131.06 64.9348 130.531 64.7769C127.32 63.8186 124.137 62.8248 120.982 61.7982ZM327.166 64.6448C327.682 64.4489 327.942 63.8714 327.746 63.3551C327.55 62.8387 326.973 62.579 326.456 62.775C323.336 63.9594 320.21 65.0764 317.079 66.128C316.556 66.3038 316.274 66.8708 316.45 67.3944C316.626 67.9179 317.193 68.1997 317.716 68.0239C320.871 66.9641 324.021 65.8384 327.166 64.6448ZM140.116 67.5074C139.583 67.3629 139.034 67.6777 138.89 68.2108C138.745 68.7438 139.06 69.2931 139.593 69.4377C142.808 70.3098 146.048 71.1448 149.31 71.9401C149.847 72.0709 150.388 71.742 150.519 71.2054C150.65 70.6688 150.321 70.1278 149.784 69.997C146.538 69.2059 143.315 68.3751 140.116 67.5074ZM308.139 71.0368C308.669 70.8813 308.973 70.3256 308.817 69.7957C308.662 69.2657 308.106 68.9623 307.576 69.1179C304.368 70.0595 301.158 70.9349 297.945 71.7458C297.41 71.8809 297.085 72.4246 297.22 72.9601C297.355 73.4956 297.899 73.8201 298.435 73.6849C301.672 72.8678 304.907 71.9858 308.139 71.0368ZM159.525 72.2352C158.985 72.1187 158.453 72.4619 158.336 73.0018C158.22 73.5416 158.563 74.0737 159.103 74.1902C162.361 74.8931 165.639 75.5548 168.937 76.1727C169.48 76.2744 170.002 75.9168 170.104 75.374C170.206 74.8311 169.848 74.3086 169.305 74.2069C166.026 73.5924 162.765 72.9343 159.525 72.2352ZM288.662 75.9557C289.202 75.8409 289.547 75.3099 289.432 74.7697C289.318 74.2295 288.786 73.8846 288.246 73.9994C284.982 74.6933 281.717 75.323 278.453 75.8904C277.909 75.985 277.544 76.5028 277.639 77.0469C277.734 77.591 278.251 77.9554 278.795 77.8609C282.084 77.2892 285.373 76.6549 288.662 75.9557ZM179.136 75.9072C178.59 75.8207 178.078 76.1928 177.992 76.7383C177.905 77.2838 178.277 77.7961 178.823 77.8825C182.121 78.4051 185.435 78.8822 188.766 79.3115C189.313 79.3821 189.815 78.9953 189.885 78.4475C189.956 77.8998 189.569 77.3985 189.021 77.3279C185.711 76.9012 182.415 76.4267 179.136 75.9072ZM268.863 79.3997C269.41 79.3251 269.794 78.8211 269.719 78.2738C269.645 77.7266 269.14 77.3434 268.593 77.418C265.293 77.8677 261.995 78.2559 258.7 78.5847C258.15 78.6396 257.749 79.1295 257.804 79.6791C257.859 80.2286 258.349 80.6297 258.899 80.5748C262.217 80.2436 265.539 79.8526 268.863 79.3997ZM198.938 78.4568C198.388 78.4026 197.899 78.8042 197.844 79.3538C197.79 79.9034 198.192 80.3929 198.741 80.4472C202.061 80.7748 205.395 81.0532 208.74 81.28C209.291 81.3173 209.768 80.9009 209.805 80.3499C209.843 79.7989 209.426 79.3219 208.875 79.2845C205.551 79.0592 202.238 78.7825 198.938 78.4568ZM248.884 81.3961C249.435 81.3606 249.853 80.8851 249.817 80.3339C249.782 79.7828 249.306 79.3647 248.755 79.4002C245.427 79.6145 242.104 79.7701 238.788 79.8695C238.236 79.886 237.802 80.3469 237.818 80.899C237.835 81.451 238.296 81.8851 238.848 81.8686C242.187 81.7686 245.532 81.6118 248.884 81.3961ZM218.843 79.8027C218.292 79.7828 217.828 80.2141 217.808 80.766C217.788 81.3179 218.22 81.7815 218.771 81.8014C222.11 81.9217 225.458 81.9889 228.815 82.0006C229.367 82.0025 229.816 81.5564 229.818 81.0041C229.82 80.4518 229.374 80.0025 228.822 80.0006C225.487 79.989 222.16 79.9223 218.843 79.8027Z" fill="#0B251C"/>
</svg>
