<svg width="424" height="82" viewBox="0 0 424 82" fill="none" xmlns="http://www.w3.org/2000/svg">
<path fill-rule="evenodd" clip-rule="evenodd" d="M423.59 80.4153L424 82.0005L422.42 81.6455C422.407 81.6428 422.394 81.6399 422.382 81.6368L416.907 80.4061C416.368 80.2849 416.029 79.7499 416.151 79.2111C416.272 78.6722 416.807 78.3336 417.346 78.4548L419.377 78.9115C419.013 78.5617 418.648 78.2133 418.283 77.8663C417.883 77.4858 417.866 76.8528 418.247 76.4525C418.627 76.0522 419.26 76.0362 419.661 76.4167C420.028 76.7657 420.395 77.1161 420.761 77.4679L420.279 75.6042C420.141 75.0695 420.463 74.524 420.997 74.3857C421.532 74.2474 422.077 74.5688 422.216 75.1035L423.59 80.4153ZM406.355 75.9841C406.894 76.1052 407.233 76.6403 407.112 77.1791C406.99 77.7179 406.455 78.0565 405.917 77.9354L400.421 76.7001C399.883 76.579 399.544 76.044 399.665 75.5051C399.786 74.9663 400.321 74.6277 400.86 74.7488L406.355 75.9841ZM419.468 64.4797C419.606 65.0144 419.285 65.5599 418.75 65.6982C418.216 65.8365 417.67 65.5152 417.532 64.9805L416.158 59.6686C416.02 59.1339 416.341 58.5883 416.876 58.4501C417.411 58.3118 417.956 58.6331 418.094 59.1678L419.468 64.4797ZM1.60346 81.4625C1.16343 81.7962 0.536149 81.7101 0.202395 81.27C-0.13136 80.83 -0.0452069 80.2027 0.394823 79.869C1.68607 78.8896 3.00786 77.904 4.35947 76.9132C4.8049 76.5866 5.43068 76.683 5.7572 77.1285C6.08372 77.5739 5.98733 78.1997 5.5419 78.5262C4.19892 79.5107 2.88588 80.4898 1.60346 81.4625ZM13.6841 72.7488C13.2289 73.0616 12.6064 72.9463 12.2935 72.4912C11.9806 72.0361 12.096 71.4135 12.5511 71.1006C15.241 69.2516 18.0269 67.3921 20.9047 65.5288C21.3683 65.2286 21.9874 65.3611 22.2876 65.8247C22.5878 66.2883 22.4553 66.9074 21.9917 67.2076C19.1292 69.061 16.3585 70.9103 13.6841 72.7488ZM412.282 69.6229C412.694 69.9904 412.73 70.6226 412.363 71.0348C411.995 71.4471 411.363 71.4834 410.951 71.1159C408.441 68.8789 405.919 66.705 403.386 64.5929C402.962 64.2393 402.904 63.6087 403.258 63.1845C403.612 62.7603 404.242 62.7031 404.667 63.0567C407.217 65.183 409.756 67.3714 412.282 69.6229ZM30.4479 61.8874C29.9767 62.1755 29.3612 62.0271 29.073 61.5559C28.7849 61.0847 28.9334 60.4692 29.4045 60.1811C32.21 58.4657 35.0898 56.7524 38.0404 55.0464C38.5185 54.77 39.1302 54.9335 39.4066 55.4116C39.6831 55.8898 39.5196 56.5014 39.0414 56.7779C36.105 58.4756 33.2393 60.1805 30.4479 61.8874ZM396.873 56.7795C397.309 57.1186 397.387 57.7468 397.048 58.1828C396.709 58.6188 396.081 58.6973 395.645 58.3583C392.987 56.2914 390.318 54.29 387.638 52.3527C387.19 52.0292 387.09 51.404 387.413 50.9564C387.737 50.5088 388.362 50.4082 388.809 50.7318C391.509 52.6828 394.197 54.6983 396.873 56.7795ZM47.7641 51.8728C47.2795 52.1378 46.6719 51.9598 46.4069 51.4753C46.1419 50.9907 46.3199 50.3831 46.8045 50.1181C49.7015 48.5339 52.6581 46.9605 55.6715 45.4025C56.1621 45.1488 56.7655 45.3409 57.0191 45.8315C57.2728 46.3221 57.0807 46.9254 56.5901 47.179C53.5905 48.73 50.6475 50.296 47.7641 51.8728ZM380.619 45.0304C381.078 45.3378 381.201 45.9589 380.893 46.4178C380.586 46.8766 379.965 46.9994 379.506 46.692C376.705 44.8158 373.894 43.007 371.073 41.2641C370.603 40.9738 370.457 40.3576 370.748 39.8878C371.038 39.4179 371.654 39.2723 372.124 39.5626C374.966 41.3184 377.798 43.1405 380.619 45.0304ZM65.4911 42.7052C64.9949 42.9476 64.3961 42.7418 64.1537 42.2455C63.9114 41.7493 64.1172 41.1505 64.6134 40.9081C67.5844 39.4571 70.6045 38.0237 73.6711 36.6116C74.1728 36.3806 74.7667 36.6 74.9977 37.1017C75.2287 37.6033 75.0093 38.1972 74.5077 38.4282C71.4549 39.8339 68.4486 41.2608 65.4911 42.7052ZM363.504 34.4558C363.984 34.7284 364.153 35.3387 363.88 35.8191C363.607 36.2994 362.997 36.4678 362.517 36.1952C359.602 34.5413 356.679 32.9552 353.747 31.4352C353.257 31.181 353.065 30.5775 353.32 30.0872C353.574 29.5969 354.177 29.4055 354.668 29.6597C357.622 31.1912 360.568 32.7894 363.504 34.4558ZM83.6341 34.3515C83.1273 34.571 82.5385 34.3381 82.3191 33.8313C82.0996 33.3244 82.3325 32.7357 82.8393 32.5162C85.8896 31.1953 88.9813 29.8978 92.1121 28.6269C92.6238 28.4192 93.2071 28.6656 93.4148 29.1774C93.6225 29.6891 93.3761 30.2723 92.8643 30.4801C89.7479 31.7451 86.6704 33.0367 83.6341 34.3515ZM345.656 25.204C346.156 25.4393 346.37 26.035 346.135 26.5347C345.9 27.0344 345.304 27.2488 344.804 27.0135C341.789 25.5941 338.766 24.2422 335.738 22.956C335.229 22.7401 334.992 22.153 335.208 21.6447C335.424 21.1363 336.011 20.8992 336.519 21.1151C339.572 22.4113 342.618 23.7737 345.656 25.204ZM102.148 26.8366C101.631 27.0323 101.054 26.7724 100.858 26.256C100.662 25.7396 100.922 25.1622 101.439 24.9664C104.543 23.7897 107.682 22.6411 110.853 21.5236C111.374 21.3401 111.945 21.6136 112.129 22.1345C112.312 22.6554 112.039 23.2264 111.518 23.41C108.361 24.5221 105.237 25.6653 102.148 26.8366ZM120.982 20.2025C120.457 20.3734 119.893 20.0862 119.722 19.5611C119.551 19.0359 119.838 18.4716 120.363 18.3007C123.533 17.2691 126.732 16.2703 129.959 15.3073C130.488 15.1493 131.045 15.4503 131.203 15.9795C131.361 16.5087 131.06 17.0658 130.531 17.2237C127.32 18.182 124.137 19.1759 120.982 20.2025ZM327.166 17.3558C327.682 17.5517 327.942 18.1292 327.746 18.6455C327.55 19.1619 326.973 19.4216 326.456 19.2256C323.336 18.0412 320.21 16.9242 317.079 15.8726C316.556 15.6968 316.274 15.1298 316.45 14.6062C316.626 14.0827 317.193 13.8009 317.716 13.9768C320.871 15.0365 324.021 16.1622 327.166 17.3558ZM140.116 14.4932C139.583 14.6378 139.034 14.3229 138.89 13.7899C138.745 13.2569 139.06 12.7075 139.593 12.563C142.808 11.6908 146.048 10.8558 149.31 10.0605C149.847 9.92973 150.388 10.2587 150.519 10.7953C150.65 11.3318 150.321 11.8728 149.784 12.0036C146.538 12.7948 143.315 13.6255 140.116 14.4932ZM308.139 10.9638C308.669 11.1193 308.973 11.675 308.817 12.205C308.662 12.7349 308.106 13.0383 307.576 12.8828C304.368 11.9411 301.158 11.0658 297.945 10.2549C297.41 10.1197 297.085 9.57602 297.22 9.04053C297.355 8.50504 297.899 8.18051 298.435 8.31568C301.672 9.13279 304.907 10.0148 308.139 10.9638ZM159.525 9.76546C158.985 9.88195 158.453 9.53873 158.336 8.99887C158.22 8.45901 158.563 7.92694 159.103 7.81046C162.361 7.10755 165.639 6.44585 168.937 5.82796C169.48 5.72624 170.002 6.08384 170.104 6.62668C170.206 7.16952 169.848 7.69203 169.305 7.79375C166.026 8.40823 162.765 9.06633 159.525 9.76546ZM288.662 6.0449C289.202 6.15974 289.547 6.69076 289.432 7.23097C289.318 7.77119 288.786 8.11602 288.246 8.00119C284.982 7.3073 281.717 6.67768 278.453 6.11024C277.909 6.01564 277.544 5.49786 277.639 4.95374C277.734 4.40961 278.251 4.0452 278.795 4.13979C282.084 4.71145 285.373 5.34577 288.662 6.0449ZM179.136 6.0935C178.59 6.17993 178.078 5.8078 177.992 5.26232C177.905 4.71684 178.277 4.20457 178.823 4.11814C182.121 3.59558 185.435 3.11842 188.766 2.68916C189.313 2.61855 189.815 3.00536 189.885 3.55311C189.956 4.10086 189.569 4.60214 189.021 4.67274C185.711 5.09949 182.415 5.57391 179.136 6.0935ZM268.863 2.60094C269.41 2.67551 269.794 3.17957 269.719 3.72679C269.645 4.27402 269.14 4.6572 268.593 4.58264C265.293 4.13297 261.995 3.74479 258.7 3.41594C258.15 3.36108 257.749 2.87112 257.804 2.32156C257.859 1.77201 258.349 1.37097 258.899 1.42583C262.217 1.75703 265.539 2.14799 268.863 2.60094ZM198.938 3.54382C198.388 3.59806 197.899 3.19649 197.844 2.64687C197.79 2.09725 198.192 1.60773 198.741 1.55349C202.061 1.22585 205.395 0.947433 208.74 0.720688C209.291 0.683334 209.768 1.09975 209.805 1.65077C209.843 2.20179 209.426 2.67876 208.875 2.7161C205.551 2.94144 202.238 3.21815 198.938 3.54382ZM248.884 0.604561C249.435 0.640038 249.853 1.11559 249.817 1.66674C249.782 2.21788 249.306 2.63591 248.755 2.60043C245.427 2.38617 242.104 2.23051 238.788 2.13117C238.236 2.11464 237.802 1.65372 237.818 1.10168C237.835 0.549644 238.296 0.11554 238.848 0.132072C242.187 0.232079 245.532 0.388809 248.884 0.604561ZM218.844 2.19796C218.292 2.21786 217.828 1.78656 217.808 1.23463C217.788 0.682709 218.22 0.219154 218.771 0.199257C222.11 0.0789108 225.458 0.0117188 228.815 4.57764e-05C229.367 -0.00187683 229.816 0.444275 229.818 0.996559C229.82 1.54884 229.374 1.99811 228.822 2.00003C225.487 2.01163 222.16 2.07838 218.844 2.19796Z" fill="#0B251C"/>
</svg>
