<svg width="142" height="34" viewBox="0 0 142 34" fill="none" xmlns="http://www.w3.org/2000/svg">
<g clip-path="url(#clip0_1_66)">
<path d="M43.2742 23.3339H53.1856V20.3486H46.797V9.1037H43.2742V23.3339Z" fill="#0B251C"/>
<path d="M59.0578 21.3437C57.6447 21.3437 56.9083 20.1098 56.9083 18.2588C56.9083 16.4079 57.6447 15.154 59.0578 15.154C60.4708 15.154 61.2271 16.4079 61.2271 18.2588C61.2271 20.1098 60.4708 21.3437 59.0578 21.3437ZM59.0777 23.6524C62.3616 23.6524 64.511 21.3238 64.511 18.2588C64.511 15.1939 62.3616 12.8653 59.0777 12.8653C55.8137 12.8653 53.6244 15.1939 53.6244 18.2588C53.6244 21.3238 55.8137 23.6524 59.0777 23.6524Z" fill="#0B251C"/>
<path d="M70.1953 26.8567C71.7078 26.8567 73.0413 26.5183 73.9369 25.7222C74.7529 24.9859 75.2903 23.8713 75.2903 22.3388V13.1439H72.1855V14.2385H72.1457C71.5486 13.3827 70.6331 12.8454 69.2797 12.8454C66.7521 12.8454 65.0007 14.955 65.0007 17.9404C65.0007 21.0651 67.1303 22.7767 69.4191 22.7767C70.653 22.7767 71.4292 22.2791 72.0263 21.6024H72.1059V22.6175C72.1059 23.8514 71.5287 24.5679 70.1555 24.5679C69.0807 24.5679 68.5434 24.1101 68.3642 23.5728H65.2196C65.5381 25.7023 67.389 26.8567 70.1953 26.8567ZM70.1753 20.3685C68.9613 20.3685 68.1652 19.3734 68.1652 17.8409C68.1652 16.2885 68.9613 15.2934 70.1753 15.2934C71.5287 15.2934 72.2452 16.4477 72.2452 17.821C72.2452 19.254 71.5884 20.3685 70.1753 20.3685Z" fill="#0B251C"/>
<path d="M81.6742 21.3437C80.2612 21.3437 79.5248 20.1098 79.5248 18.2588C79.5248 16.4079 80.2612 15.154 81.6742 15.154C83.0873 15.154 83.8436 16.4079 83.8436 18.2588C83.8436 20.1098 83.0873 21.3437 81.6742 21.3437ZM81.6941 23.6524C84.978 23.6524 87.1275 21.3238 87.1275 18.2588C87.1275 15.1939 84.978 12.8653 81.6941 12.8653C78.4301 12.8653 76.2409 15.1939 76.2409 18.2588C76.2409 21.3238 78.4301 23.6524 81.6941 23.6524Z" fill="#0B251C"/>
<path d="M88.0745 23.3339H91.3186V13.1439H88.0745V23.3339ZM88.0745 11.7308H91.3186V9.1037H88.0745V11.7308Z" fill="#0B251C"/>
<path d="M92.7267 26.6975H95.9708V22.2791H96.0106C96.6475 23.1349 97.5829 23.6524 98.8965 23.6524C101.563 23.6524 103.335 21.5427 103.335 18.2389C103.335 15.174 101.683 12.8454 98.9761 12.8454C97.5829 12.8454 96.5878 13.4623 95.8912 14.3779H95.8315V13.1439H92.7267V26.6975ZM98.0606 21.1447C96.6674 21.1447 95.8713 20.0102 95.8713 18.3583C95.8713 16.7064 96.5878 15.4526 98.0009 15.4526C99.394 15.4526 100.051 16.6069 100.051 18.3583C100.051 20.0899 99.2945 21.1447 98.0606 21.1447Z" fill="#0B251C"/>
<path d="M108.616 23.6524C111.283 23.6524 113.254 22.498 113.254 20.269C113.254 17.6618 111.144 17.204 109.353 16.9055C108.059 16.6666 106.905 16.5671 106.905 15.8506C106.905 15.2138 107.522 14.9152 108.318 14.9152C109.213 14.9152 109.83 15.1939 109.95 16.1094H112.935C112.776 14.0992 111.224 12.8454 108.338 12.8454C105.93 12.8454 103.939 13.9599 103.939 16.1094C103.939 18.4977 105.83 18.9753 107.601 19.2739C108.955 19.5127 110.189 19.6122 110.189 20.5277C110.189 21.1845 109.572 21.5427 108.596 21.5427C107.522 21.5427 106.845 21.0452 106.726 20.0301H103.661C103.76 22.2791 105.631 23.6524 108.616 23.6524Z" fill="#0B251C"/>
<path d="M117.66 23.6325C119.073 23.6325 119.969 23.0752 120.705 22.0801H120.765V23.3339H123.87V13.1439H120.626V18.836C120.626 20.05 119.949 20.8859 118.835 20.8859C117.8 20.8859 117.302 20.269 117.302 19.1544V13.1439H114.078V19.8311C114.078 22.1 115.312 23.6325 117.66 23.6325Z" fill="#0B251C"/>
<path d="M125.28 23.334H128.525V17.622C128.525 16.4079 129.122 15.5521 130.137 15.5521C131.112 15.5521 131.57 16.189 131.57 17.2836V23.334H134.814V17.622C134.814 16.4079 135.391 15.5521 136.426 15.5521C137.401 15.5521 137.859 16.189 137.859 17.2836V23.334H141.103V16.7064C141.103 14.4177 139.949 12.8454 137.64 12.8454C136.326 12.8454 135.232 13.4026 134.436 14.6366H134.396C133.878 13.542 132.863 12.8454 131.53 12.8454C130.057 12.8454 129.082 13.542 128.445 14.5968H128.385V13.1439H125.28V23.334Z" fill="#0B251C"/>
<path fill-rule="evenodd" clip-rule="evenodd" d="M17.4209 33.2852C26.5808 33.2852 34.0063 25.8597 34.0063 16.6998C34.0063 7.54 26.5808 0.114471 17.4209 0.114471C8.26107 0.114471 0.835567 7.54 0.835567 16.6998C0.835567 25.8597 8.26107 33.2852 17.4209 33.2852ZM22.595 7.84063C22.8469 6.94602 21.9787 6.41702 21.1858 6.98189L10.1177 14.8668C9.2578 15.4794 9.39305 16.6998 10.3208 16.6998H13.2354V16.6773H18.9157L14.2873 18.3103L12.2469 25.5591C11.995 26.4537 12.8631 26.9827 13.6561 26.4178L24.7242 18.5329C25.5841 17.9203 25.4488 16.6998 24.5211 16.6998H20.1012L22.595 7.84063Z" fill="#0B251C"/>
</g>
<defs>
<clipPath id="clip0_1_66">
<rect width="140.976" height="34" fill="white" transform="translate(0.26828)"/>
</clipPath>
</defs>
</svg>
