<svg width="139" height="34" viewBox="0 0 139 34" fill="none" xmlns="http://www.w3.org/2000/svg">
<g clip-path="url(#clip0_1_77)">
<path d="M40.5718 23.8776H50.4832V20.8922H44.0945V9.64737H40.5718V23.8776Z" fill="#0B251C"/>
<path d="M56.3554 21.8874C54.9424 21.8874 54.206 20.6534 54.206 18.8025C54.206 16.9516 54.9424 15.6977 56.3554 15.6977C57.7685 15.6977 58.5248 16.9516 58.5248 18.8025C58.5248 20.6534 57.7685 21.8874 56.3554 21.8874ZM56.3753 24.1961C59.6592 24.1961 61.8087 21.8675 61.8087 18.8025C61.8087 15.7375 59.6592 13.4089 56.3753 13.4089C53.1113 13.4089 50.9221 15.7375 50.9221 18.8025C50.9221 21.8675 53.1113 24.1961 56.3753 24.1961Z" fill="#0B251C"/>
<path d="M67.4928 27.4004C69.0054 27.4004 70.3389 27.062 71.2345 26.2659C72.0505 25.5295 72.5879 24.415 72.5879 22.8825V13.6876H69.4831V14.7822H69.4433C68.8462 13.9264 67.9307 13.389 66.5773 13.389C64.0497 13.389 62.2983 15.4987 62.2983 18.4841C62.2983 21.6087 64.4279 23.3204 66.7166 23.3204C67.9506 23.3204 68.7268 22.8228 69.3239 22.1461H69.4035V23.1611C69.4035 24.3951 68.8263 25.1116 67.453 25.1116C66.3783 25.1116 65.8409 24.6538 65.6618 24.1165H62.5172C62.8357 26.246 64.6866 27.4004 67.4928 27.4004ZM67.4729 20.9122C66.2589 20.9122 65.4628 19.917 65.4628 18.3846C65.4628 16.8322 66.2589 15.837 67.4729 15.837C68.8263 15.837 69.5428 16.9914 69.5428 18.3646C69.5428 19.7976 68.886 20.9122 67.4729 20.9122Z" fill="#0B251C"/>
<path d="M78.9719 21.8874C77.5588 21.8874 76.8224 20.6534 76.8224 18.8025C76.8224 16.9516 77.5588 15.6977 78.9719 15.6977C80.385 15.6977 81.1413 16.9516 81.1413 18.8025C81.1413 20.6534 80.385 21.8874 78.9719 21.8874ZM78.9918 24.1961C82.2757 24.1961 84.4254 21.8675 84.4254 18.8025C84.4254 15.7375 82.2757 13.4089 78.9918 13.4089C75.7278 13.4089 73.5385 15.7375 73.5385 18.8025C73.5385 21.8675 75.7278 24.1961 78.9918 24.1961Z" fill="#0B251C"/>
<path d="M85.3724 23.8776H88.6165V13.6876H85.3724V23.8776ZM85.3724 12.2745H88.6165V9.64737H85.3724V12.2745Z" fill="#0B251C"/>
<path d="M90.0238 27.2411H93.2679V22.8228H93.3077C93.9446 23.6786 94.88 24.1961 96.1936 24.1961C98.8605 24.1961 100.632 22.0864 100.632 18.7826C100.632 15.7176 98.9799 13.389 96.2732 13.389C94.88 13.389 93.8849 14.006 93.1883 14.9215H93.1286V13.6876H90.0238V27.2411ZM95.3577 21.6884C93.9645 21.6884 93.1684 20.5539 93.1684 18.902C93.1684 17.2501 93.8849 15.9963 95.298 15.9963C96.6911 15.9963 97.3479 17.1506 97.3479 18.902C97.3479 20.6335 96.5916 21.6884 95.3577 21.6884Z" fill="#0B251C"/>
<path d="M105.914 24.1961C108.581 24.1961 110.552 23.0417 110.552 20.8126C110.552 18.2054 108.442 17.7477 106.651 17.4491C105.357 17.2103 104.203 17.1108 104.203 16.3943C104.203 15.7574 104.82 15.4589 105.616 15.4589C106.511 15.4589 107.128 15.7375 107.248 16.653H110.233C110.074 14.6429 108.521 13.389 105.636 13.389C103.227 13.389 101.237 14.5036 101.237 16.653C101.237 19.0413 103.128 19.519 104.899 19.8175C106.253 20.0564 107.487 20.1559 107.487 21.0714C107.487 21.7282 106.87 22.0864 105.894 22.0864C104.82 22.0864 104.143 21.5888 104.024 20.5738H100.959C101.058 22.8228 102.929 24.1961 105.914 24.1961Z" fill="#0B251C"/>
<path d="M114.957 24.1761C116.37 24.1761 117.266 23.6189 118.002 22.6238H118.062V23.8776H121.167V13.6876H117.923V19.3797C117.923 20.5937 117.246 21.4296 116.132 21.4296C115.097 21.4296 114.599 20.8126 114.599 19.6981V13.6876H111.375V20.3748C111.375 22.6437 112.609 24.1761 114.957 24.1761Z" fill="#0B251C"/>
<path d="M122.578 23.8776H125.822V18.1656C125.822 16.9516 126.42 16.0958 127.435 16.0958C128.41 16.0958 128.868 16.7326 128.868 17.8273V23.8776H132.112V18.1656C132.112 16.9516 132.689 16.0958 133.724 16.0958C134.699 16.0958 135.157 16.7326 135.157 17.8273V23.8776H138.401V17.2501C138.401 14.9613 137.246 13.389 134.938 13.389C133.624 13.389 132.53 13.9463 131.733 15.1803H131.694C131.176 14.0856 130.161 13.389 128.828 13.389C127.355 13.389 126.38 14.0856 125.743 15.1405H125.683V13.6876H122.578V23.8776Z" fill="#0B251C"/>
<path fill-rule="evenodd" clip-rule="evenodd" d="M7.42053 3.22709C6.23412 4.05666 5.1613 5.03748 4.22999 6.14158C8.03575 5.78826 12.8708 6.3652 18.4843 9.17196C24.4788 12.1691 29.3058 12.2704 32.6651 11.6224C32.3603 10.6996 31.9765 9.81257 31.522 8.96937C27.6764 9.37497 22.7464 8.8381 17.0009 5.96543C13.3525 4.14121 10.1364 3.38975 7.42053 3.22709ZM29.2756 5.77194C26.2387 2.37886 21.8254 0.2435 16.9134 0.2435C15.4708 0.2435 14.0712 0.427686 12.7369 0.7738C14.544 1.26689 16.4638 1.98827 18.4843 2.99855C22.6909 5.10179 26.3226 5.77899 29.2756 5.77194ZM33.3834 14.8619C29.3249 15.6633 23.7206 15.4987 17.0009 12.1388C10.7187 8.99773 5.71862 9.03729 2.34637 9.7867C2.17231 9.82534 2.00234 9.86598 1.83648 9.90827C1.39497 10.8685 1.04254 11.8782 0.789673 12.9267C1.05975 12.8546 1.33884 12.786 1.62679 12.722C5.71791 11.8128 11.4983 11.8523 18.4843 15.3454C24.7666 18.4865 29.7667 18.4469 33.139 17.6975C33.2545 17.6719 33.3684 17.6453 33.4803 17.618C33.4926 17.3565 33.4987 17.0934 33.4987 16.8288C33.4987 16.1634 33.4596 15.507 33.3834 14.8619ZM32.9388 21.1181C28.9197 21.8207 23.4787 21.551 17.0009 18.3122C10.7187 15.1711 5.71862 15.2107 2.34637 15.9601C1.59784 16.1264 0.92446 16.329 0.330448 16.5428C0.328828 16.6379 0.328018 16.7333 0.328018 16.8288C0.328018 25.9887 7.75353 33.4142 16.9134 33.4142C24.59 33.4142 31.0485 28.1989 32.9388 21.1181Z" fill="#0B251C"/>
</g>
<defs>
<clipPath id="clip0_1_77">
<rect width="138.488" height="34" fill="white" transform="translate(0.243896)"/>
</clipPath>
</defs>
</svg>
