<svg width="155" height="34" viewBox="0 0 155 34" fill="none" xmlns="http://www.w3.org/2000/svg">
<path d="M45.3777 22.6914C45.3777 23.4336 45.2253 24.0039 44.9206 24.4023C44.6238 24.8008 44.1277 25 43.4324 25C42.7761 25 42.3113 24.8008 42.0378 24.4023C41.7722 24.0039 41.6394 23.4336 41.6394 22.6914V10.3047C41.6394 9.5625 41.7722 8.99219 42.0378 8.59375C42.3113 8.19531 42.7761 7.99609 43.4324 7.99609C44.1277 7.99609 44.6238 8.19531 44.9206 8.59375C45.2253 8.99219 45.3777 9.5625 45.3777 10.3047V22.6914Z" fill="#0B251C"/>
<path d="M46.5125 19.0938C46.5125 18.2656 46.6453 17.4844 46.911 16.75C47.1844 16.0078 47.5906 15.3594 48.1297 14.8047C48.6766 14.25 49.3563 13.8086 50.1688 13.4805C50.9891 13.1523 51.95 12.9883 53.0516 12.9883C54.1063 12.9883 55.0399 13.1406 55.8524 13.4453C56.6649 13.75 57.3485 14.1758 57.9031 14.7227C58.4578 15.2617 58.8797 15.9062 59.1688 16.6562C59.4578 17.3984 59.6024 18.2109 59.6024 19.0938C59.6024 19.9141 59.4656 20.6914 59.1922 21.4258C58.9188 22.1523 58.5086 22.793 57.9617 23.3477C57.4149 23.8945 56.7313 24.332 55.911 24.6602C55.0906 24.9805 54.1375 25.1406 53.0516 25.1406C51.9813 25.1406 51.036 24.9883 50.2156 24.6836C49.4031 24.3711 48.7196 23.9453 48.1649 23.4062C47.618 22.8594 47.2039 22.2188 46.9227 21.4844C46.6492 20.7422 46.5125 19.9453 46.5125 19.0938ZM50.4149 19.0938C50.4149 19.6094 50.4617 20.1016 50.5555 20.5703C50.6492 21.0312 50.7977 21.4375 51.0008 21.7891C51.2117 22.1406 51.4852 22.4219 51.8211 22.6328C52.1571 22.8359 52.5672 22.9375 53.0516 22.9375C53.4969 22.9375 53.8836 22.8438 54.2117 22.6562C54.5477 22.4688 54.8211 22.207 55.0321 21.8711C55.2508 21.5352 55.4149 21.1328 55.5242 20.6641C55.6336 20.1875 55.6883 19.6641 55.6883 19.0938C55.6883 18.5781 55.6375 18.0898 55.536 17.6289C55.4422 17.1602 55.2899 16.75 55.0789 16.3984C54.868 16.0391 54.5946 15.7578 54.2586 15.5547C53.9305 15.3438 53.5281 15.2383 53.0516 15.2383C52.575 15.2383 52.1688 15.3398 51.8328 15.543C51.4969 15.7461 51.2235 16.0234 51.0125 16.375C50.8016 16.7266 50.6492 17.1367 50.5555 17.6055C50.4617 18.0742 50.4149 18.5703 50.4149 19.0938Z" fill="#0B251C"/>
<path d="M69.2216 22.7383C69.0106 23.1289 68.7528 23.4609 68.4481 23.7344C68.1513 24.0078 67.8192 24.2344 67.4521 24.4141C67.0927 24.5859 66.706 24.7148 66.2919 24.8008C65.8856 24.8789 65.4677 24.918 65.038 24.918C64.3192 24.918 63.663 24.7891 63.0692 24.5312C62.4755 24.2734 61.9638 23.9023 61.5341 23.418C61.1122 22.9258 60.7841 22.3242 60.5497 21.6133C60.3153 20.9023 60.1981 20.0898 60.1981 19.1758C60.1981 18.3164 60.3075 17.5117 60.5263 16.7617C60.745 16.0117 61.0614 15.3594 61.4755 14.8047C61.8974 14.25 62.413 13.8125 63.0224 13.4922C63.6317 13.1719 64.3271 13.0117 65.1083 13.0117C65.9989 13.0117 66.788 13.1836 67.4755 13.5273C68.1708 13.8711 68.7685 14.4336 69.2685 15.2148V14.9102C69.2685 14.3477 69.4208 13.9258 69.7255 13.6445C70.038 13.3555 70.4677 13.2109 71.0146 13.2109C71.3427 13.2109 71.62 13.2656 71.8466 13.375C72.0731 13.4766 72.2528 13.6328 72.3856 13.8438C72.5185 14.0469 72.6122 14.3008 72.6669 14.6055C72.7294 14.9023 72.7606 15.2422 72.7606 15.625V23.4766C72.7606 24.4297 72.6396 25.2812 72.3974 26.0312C72.163 26.7812 71.7958 27.4141 71.2958 27.9297C70.7958 28.4453 70.1552 28.8359 69.3739 29.1016C68.5927 29.375 67.663 29.5117 66.5849 29.5117C65.8271 29.5117 65.1552 29.4766 64.5692 29.4062C63.9911 29.3438 63.4911 29.2461 63.0692 29.1133C62.6474 28.9648 62.3271 28.8008 62.1083 28.6211C61.8974 28.4414 61.7919 28.207 61.7919 27.918C61.7919 27.7539 61.8153 27.5977 61.8622 27.4492C61.9091 27.3008 61.9794 27.168 62.0731 27.0508C62.1747 26.9414 62.3036 26.8516 62.4599 26.7812C62.6239 26.7188 62.8231 26.6875 63.0575 26.6875C63.3075 26.6875 63.5575 26.7031 63.8075 26.7344C64.0653 26.7656 64.331 26.7969 64.6044 26.8281C64.8856 26.8672 65.1786 26.9023 65.4833 26.9336C65.7958 26.9648 66.1317 26.9805 66.4911 26.9805C66.9208 26.9805 67.3036 26.9375 67.6396 26.8516C67.9755 26.7656 68.2606 26.6133 68.495 26.3945C68.7294 26.1758 68.9091 25.8828 69.0341 25.5156C69.1591 25.1562 69.2216 24.6953 69.2216 24.1328V22.7383ZM69.2216 19.0938C69.2216 18.5234 69.1786 18.0039 69.0927 17.5352C69.0146 17.0664 68.8778 16.668 68.6825 16.3398C68.4872 16.0039 68.2255 15.7461 67.8974 15.5664C67.5692 15.3789 67.1591 15.2852 66.6669 15.2852C66.1825 15.2852 65.7802 15.3828 65.4599 15.5781C65.1474 15.7734 64.8974 16.043 64.7099 16.3867C64.5224 16.7305 64.3896 17.1328 64.3114 17.5938C64.2411 18.0547 64.206 18.5469 64.206 19.0703C64.206 20.2656 64.4169 21.1641 64.8388 21.7656C65.2606 22.3672 65.8739 22.668 66.6786 22.668C67.0536 22.6602 67.3935 22.5898 67.6981 22.457C68.0106 22.3164 68.2802 22.1016 68.5067 21.8125C68.7333 21.5234 68.9091 21.1562 69.0341 20.7109C69.1591 20.2656 69.2216 19.7266 69.2216 19.0938Z" fill="#0B251C"/>
<path d="M73.8369 19.0938C73.8369 18.2656 73.9697 17.4844 74.2353 16.75C74.5088 16.0078 74.915 15.3594 75.4541 14.8047C76.001 14.25 76.6806 13.8086 77.4931 13.4805C78.3135 13.1523 79.2744 12.9883 80.376 12.9883C81.4306 12.9883 82.3642 13.1406 83.1767 13.4453C83.9892 13.75 84.6728 14.1758 85.2275 14.7227C85.7822 15.2617 86.2041 15.9062 86.4931 16.6562C86.7822 17.3984 86.9267 18.2109 86.9267 19.0938C86.9267 19.9141 86.79 20.6914 86.5166 21.4258C86.2431 22.1523 85.833 22.793 85.2861 23.3477C84.7392 23.8945 84.0556 24.332 83.2353 24.6602C82.415 24.9805 81.4619 25.1406 80.376 25.1406C79.3056 25.1406 78.3603 24.9883 77.54 24.6836C76.7275 24.3711 76.0439 23.9453 75.4892 23.4062C74.9424 22.8594 74.5283 22.2188 74.247 21.4844C73.9736 20.7422 73.8369 19.9453 73.8369 19.0938ZM77.7392 19.0938C77.7392 19.6094 77.7861 20.1016 77.8799 20.5703C77.9736 21.0312 78.122 21.4375 78.3252 21.7891C78.5361 22.1406 78.8095 22.4219 79.1455 22.6328C79.4814 22.8359 79.8916 22.9375 80.376 22.9375C80.8213 22.9375 81.208 22.8438 81.5361 22.6562C81.872 22.4688 82.1455 22.207 82.3564 21.8711C82.5752 21.5352 82.7392 21.1328 82.8486 20.6641C82.958 20.1875 83.0127 19.6641 83.0127 19.0938C83.0127 18.5781 82.9619 18.0898 82.8603 17.6289C82.7666 17.1602 82.6142 16.75 82.4033 16.3984C82.1924 16.0391 81.9189 15.7578 81.583 15.5547C81.2549 15.3438 80.8525 15.2383 80.376 15.2383C79.8994 15.2383 79.4931 15.3398 79.1572 15.543C78.8213 15.7461 78.5478 16.0234 78.3369 16.375C78.126 16.7266 77.9736 17.1367 77.8799 17.6055C77.7861 18.0742 77.7392 18.5703 77.7392 19.0938Z" fill="#0B251C"/>
<path d="M91.9522 9.03906C91.9522 9.29688 91.8936 9.52734 91.7764 9.73047C91.6592 9.92578 91.5069 10.0898 91.3194 10.2227C91.1319 10.3555 90.9131 10.457 90.6631 10.5273C90.421 10.5898 90.171 10.6211 89.9131 10.6211C89.6397 10.6211 89.378 10.5859 89.128 10.5156C88.8858 10.4453 88.671 10.3438 88.4835 10.2109C88.296 10.0703 88.1475 9.90234 88.0381 9.70703C87.9288 9.51172 87.8741 9.28906 87.8741 9.03906C87.8741 8.8125 87.9249 8.60547 88.0264 8.41797C88.1358 8.22266 88.2803 8.05469 88.46 7.91406C88.6397 7.77344 88.8546 7.66406 89.1046 7.58594C89.3546 7.50781 89.628 7.46875 89.9249 7.46875C90.1827 7.46875 90.4327 7.50391 90.6749 7.57422C90.9249 7.64453 91.1436 7.74609 91.3311 7.87891C91.5186 8.01172 91.6671 8.17578 91.7764 8.37109C91.8936 8.56641 91.9522 8.78906 91.9522 9.03906ZM91.7764 22.6914C91.7764 23.4336 91.6241 24.0039 91.3194 24.4023C91.0225 24.8008 90.5264 25 89.8311 25C89.1749 25 88.71 24.8008 88.4366 24.4023C88.171 24.0039 88.0381 23.4336 88.0381 22.6914V15.5195C88.0381 14.7773 88.171 14.207 88.4366 13.8086C88.71 13.4102 89.1749 13.2109 89.8311 13.2109C90.5264 13.2109 91.0225 13.4102 91.3194 13.8086C91.6241 14.207 91.7764 14.7773 91.7764 15.5195V22.6914Z" fill="#0B251C"/>
<path d="M97.1652 19.0703C97.1652 19.5938 97.2042 20.082 97.2824 20.5352C97.3683 20.9883 97.5089 21.3867 97.7042 21.7305C97.9074 22.0664 98.173 22.332 98.5011 22.5273C98.837 22.7227 99.2511 22.8203 99.7433 22.8203C100.196 22.8203 100.575 22.7266 100.88 22.5391C101.192 22.3438 101.442 22.0781 101.63 21.7422C101.817 21.3984 101.95 20.9961 102.028 20.5352C102.114 20.0742 102.157 19.5742 102.157 19.0352C102.157 18.6055 102.126 18.168 102.063 17.7227C102.001 17.2695 101.884 16.8594 101.712 16.4922C101.54 16.125 101.302 15.8242 100.997 15.5898C100.692 15.3555 100.294 15.2383 99.8019 15.2383C99.3097 15.2383 98.8917 15.3164 98.548 15.4727C98.212 15.6289 97.9386 15.8672 97.7277 16.1875C97.5245 16.5078 97.38 16.9102 97.2941 17.3945C97.2081 17.8711 97.1652 18.4297 97.1652 19.0703ZM97.1535 15.5195C97.3488 15.1055 97.5988 14.7422 97.9035 14.4297C98.2081 14.1172 98.5441 13.8555 98.9113 13.6445C99.2785 13.4336 99.6613 13.2773 100.06 13.1758C100.466 13.0664 100.868 13.0117 101.266 13.0117C101.985 13.0117 102.634 13.1719 103.212 13.4922C103.79 13.8125 104.282 14.25 104.688 14.8047C105.102 15.3516 105.419 16 105.638 16.75C105.856 17.4922 105.966 18.2891 105.966 19.1406C105.966 20.0234 105.848 20.832 105.614 21.5664C105.388 22.3008 105.063 22.9336 104.641 23.4648C104.227 23.9883 103.727 24.3984 103.141 24.6953C102.563 24.9922 101.919 25.1406 101.208 25.1406C100.333 25.1406 99.5519 24.9375 98.8644 24.5312C98.1769 24.125 97.6066 23.5547 97.1535 22.8203V27.0391C97.1535 27.7812 97.0011 28.3516 96.6964 28.75C96.3995 29.1484 95.9035 29.3477 95.2081 29.3477C94.5519 29.3477 94.087 29.1484 93.8136 28.75C93.548 28.3516 93.4152 27.7812 93.4152 27.0391V15.5195C93.4152 14.7773 93.548 14.207 93.8136 13.8086C94.087 13.4102 94.5519 13.2109 95.2081 13.2109C95.9035 13.2109 96.3995 13.4102 96.6964 13.8086C97.0011 14.207 97.1535 14.7773 97.1535 15.5195Z" fill="#0B251C"/>
<path d="M110.089 16.3516C110.089 16.6562 110.222 16.8945 110.487 17.0664C110.753 17.2305 111.12 17.3672 111.589 17.4766C112.034 17.5781 112.491 17.6758 112.96 17.7695C113.429 17.8633 113.886 17.9727 114.331 18.0977C114.776 18.2148 115.194 18.3555 115.585 18.5195C115.975 18.6836 116.319 18.8906 116.616 19.1406C116.913 19.3828 117.147 19.6797 117.319 20.0312C117.491 20.375 117.577 20.7891 117.577 21.2734C117.577 21.8828 117.452 22.4258 117.202 22.9023C116.952 23.3711 116.597 23.7695 116.136 24.0977C115.683 24.4258 115.14 24.6797 114.507 24.8594C113.874 25.0391 113.175 25.1328 112.409 25.1406C111.683 25.1406 110.983 25.0938 110.311 25C109.64 24.9141 109.042 24.7773 108.518 24.5898C108.003 24.4023 107.589 24.1719 107.276 23.8984C106.964 23.6172 106.808 23.2891 106.808 22.9141C106.808 22.5859 106.913 22.332 107.124 22.1523C107.335 21.9727 107.604 21.8828 107.933 21.8828C108.058 21.8828 108.206 21.9062 108.378 21.9531C108.55 22 108.737 22.0586 108.94 22.1289C109.143 22.1992 109.358 22.2773 109.585 22.3633C109.819 22.4414 110.061 22.5117 110.311 22.5742C110.624 22.6602 110.944 22.7305 111.272 22.7852C111.608 22.832 111.952 22.8555 112.304 22.8555C112.522 22.8555 112.737 22.8359 112.948 22.7969C113.159 22.75 113.347 22.6836 113.511 22.5977C113.683 22.5039 113.823 22.3867 113.933 22.2461C114.042 22.1055 114.108 21.9336 114.132 21.7305C114.155 21.6836 114.175 21.6367 114.19 21.5898C114.206 21.543 114.214 21.4883 114.214 21.4258C114.214 21.207 114.112 21.0117 113.909 20.8398C113.714 20.668 113.436 20.5312 113.077 20.4297C112.475 20.2891 111.901 20.1602 111.354 20.043C110.808 19.9258 110.3 19.8008 109.831 19.668C109.37 19.5352 108.948 19.3828 108.565 19.2109C108.19 19.0391 107.87 18.8281 107.604 18.5781C107.347 18.3281 107.143 18.0273 106.995 17.6758C106.854 17.3242 106.784 16.8984 106.784 16.3984C106.784 15.8594 106.905 15.3789 107.147 14.957C107.397 14.5273 107.753 14.168 108.214 13.8789C108.675 13.5898 109.233 13.3711 109.89 13.2227C110.546 13.0664 111.288 12.9883 112.116 12.9883C113.6 12.9883 114.729 13.168 115.503 13.5273C116.284 13.8789 116.675 14.3398 116.675 14.9102C116.675 15.2305 116.569 15.4766 116.358 15.6484C116.147 15.8125 115.893 15.8945 115.597 15.8945C115.44 15.8945 115.276 15.8672 115.104 15.8125C114.94 15.75 114.741 15.6836 114.507 15.6133C114.272 15.5352 113.991 15.4688 113.663 15.4141C113.343 15.3516 112.944 15.3203 112.468 15.3203C112.108 15.3203 111.78 15.3359 111.483 15.3672C111.194 15.3984 110.944 15.4531 110.733 15.5312C110.53 15.6094 110.37 15.7148 110.253 15.8477C110.143 15.9805 110.089 16.1484 110.089 16.3516Z" fill="#0B251C"/>
<path d="M122.333 20.6523C122.333 21.0195 122.38 21.3398 122.474 21.6133C122.575 21.8867 122.712 22.1172 122.884 22.3047C123.056 22.4844 123.255 22.6211 123.481 22.7148C123.716 22.8008 123.966 22.8438 124.231 22.8438C124.544 22.8438 124.845 22.7969 125.134 22.7031C125.423 22.6094 125.677 22.4648 125.896 22.2695C126.122 22.0742 126.302 21.8281 126.435 21.5312C126.567 21.2344 126.634 20.8867 126.634 20.4883V15.5195C126.634 14.7773 126.767 14.207 127.032 13.8086C127.306 13.4102 127.771 13.2109 128.427 13.2109C129.122 13.2109 129.618 13.4102 129.915 13.8086C130.22 14.207 130.372 14.7773 130.372 15.5195V22.6914C130.372 23.4336 130.22 24.0039 129.915 24.4023C129.618 24.8008 129.122 25 128.427 25C127.771 25 127.306 24.8008 127.032 24.4023C126.767 24.0039 126.634 23.4336 126.634 22.6914C126.47 23.0508 126.255 23.3789 125.989 23.6758C125.731 23.9727 125.427 24.2305 125.075 24.4492C124.731 24.6602 124.349 24.8242 123.927 24.9414C123.513 25.0586 123.063 25.1172 122.579 25.1172C122.056 25.1172 121.552 25.0273 121.067 24.8477C120.591 24.6602 120.169 24.3867 119.802 24.0273C119.435 23.6602 119.142 23.207 118.923 22.668C118.704 22.1289 118.595 21.5 118.595 20.7812V15.5195C118.595 14.7773 118.728 14.207 118.993 13.8086C119.267 13.4102 119.731 13.2109 120.388 13.2109C121.083 13.2109 121.579 13.4102 121.876 13.8086C122.181 14.207 122.333 14.7773 122.333 15.5195V20.6523Z" fill="#0B251C"/>
<path d="M132.069 15.5195C132.069 14.7773 132.202 14.207 132.468 13.8086C132.741 13.4102 133.206 13.2109 133.862 13.2109C134.558 13.2109 135.054 13.4102 135.351 13.8086C135.655 14.207 135.808 14.7773 135.808 15.5195C135.964 15.1445 136.175 14.8047 136.441 14.5C136.714 14.1875 137.023 13.9219 137.366 13.7031C137.718 13.4844 138.097 13.3164 138.503 13.1992C138.909 13.0742 139.331 13.0117 139.769 13.0117C140.175 13.0117 140.573 13.0664 140.964 13.1758C141.362 13.2773 141.73 13.4453 142.066 13.6797C142.409 13.9062 142.71 14.1953 142.968 14.5469C143.226 14.8984 143.425 15.3203 143.566 15.8125C143.808 15.2891 144.093 14.8477 144.421 14.4883C144.749 14.1289 145.105 13.8398 145.487 13.6211C145.87 13.4023 146.269 13.2461 146.683 13.1523C147.105 13.0586 147.526 13.0117 147.948 13.0117C148.448 13.0117 148.925 13.1016 149.378 13.2812C149.839 13.4609 150.241 13.7344 150.585 14.1016C150.937 14.4609 151.214 14.918 151.417 15.4727C151.628 16.0195 151.733 16.6602 151.733 17.3945V22.6914C151.733 23.4336 151.581 24.0039 151.276 24.4023C150.98 24.8008 150.483 25 149.788 25C149.132 25 148.667 24.8008 148.394 24.4023C148.128 24.0039 147.995 23.4336 147.995 22.6914V17.5586C147.995 17.207 147.948 16.8945 147.855 16.6211C147.761 16.3398 147.628 16.1055 147.456 15.918C147.292 15.7227 147.097 15.5781 146.87 15.4844C146.644 15.3828 146.401 15.332 146.144 15.332C145.823 15.332 145.519 15.3828 145.23 15.4844C144.941 15.5859 144.687 15.7422 144.468 15.9531C144.257 16.1641 144.085 16.4336 143.952 16.7617C143.827 17.0898 143.765 17.4844 143.765 17.9453V22.6914C143.765 23.4336 143.612 24.0039 143.308 24.4023C143.011 24.8008 142.515 25 141.819 25C141.163 25 140.698 24.8008 140.425 24.4023C140.159 24.0039 140.026 23.4336 140.026 22.6914V17.7812C140.026 16.9766 139.858 16.3672 139.523 15.9531C139.194 15.5391 138.745 15.332 138.175 15.332C137.839 15.332 137.526 15.3867 137.237 15.4961C136.948 15.6055 136.698 15.7656 136.487 15.9766C136.276 16.1875 136.108 16.4492 135.983 16.7617C135.866 17.0742 135.808 17.4336 135.808 17.8398V22.6914C135.808 23.4336 135.655 24.0039 135.351 24.4023C135.054 24.8008 134.558 25 133.862 25C133.206 25 132.741 24.8008 132.468 24.4023C132.202 24.0039 132.069 23.4336 132.069 22.6914V15.5195Z" fill="#0B251C"/>
<path d="M17.2683 23C13.9546 23 11.2683 20.3137 11.2683 17C11.2683 13.6863 13.9546 11 17.2683 11C20.582 11 23.2683 13.6863 23.2683 17C23.2683 20.3137 20.582 23 17.2683 23Z" fill="#0B251C"/>
<path d="M5.64451 19.0496C3.90576 19.3562 2.71394 21.0358 3.38139 22.6704C4.31323 24.9524 5.79986 26.9856 7.72717 28.5744C10.4831 30.8461 13.9591 32.06 17.5301 31.9977C21.1011 31.9354 24.5327 30.6009 27.2077 28.2343C29.0783 26.5793 30.4931 24.4954 31.3448 22.1823C31.9548 20.5254 30.705 18.8884 28.9566 18.6427C27.2083 18.397 25.6385 19.6696 24.7749 21.2096C24.3068 22.0443 23.6991 22.8016 22.9711 23.4457C21.4363 24.8036 19.4674 25.5692 17.4186 25.605C15.3697 25.6407 13.3753 24.9443 11.7941 23.6408C11.044 23.0225 10.4103 22.2869 9.9133 21.469C8.99651 19.9601 7.38326 18.743 5.64451 19.0496Z" fill="#0B251C"/>
<path d="M32.1523 18.8745C32.2289 18.2604 32.2683 17.6348 32.2683 17C32.2683 8.71573 25.5526 2 17.2683 2C8.98401 2 2.26828 8.71573 2.26828 17C2.26828 17.8147 2.33323 18.6142 2.45824 19.3937C3.14722 18.4505 4.22254 17.7772 5.38404 17.5724C6.64073 17.3508 7.78286 17.6556 8.74855 18.2253C8.6915 17.8251 8.66198 17.416 8.66198 17C8.66198 12.2469 12.5152 8.3937 17.2683 8.3937C22.0214 8.3937 25.8746 12.2469 25.8746 17C25.8746 17.3134 25.8578 17.6229 25.8252 17.9276C26.7705 17.3243 27.9015 16.9796 29.1654 17.1573C30.333 17.3214 31.4308 17.9564 32.1523 18.8745Z" fill="#0B251C"/>
</svg>
