<svg width="142" height="34" viewBox="0 0 142 34" fill="none" xmlns="http://www.w3.org/2000/svg">
<g clip-path="url(#clip0_1_42)">
<path d="M42.8155 24.3168H52.7269V21.3314H46.3382V10.0865H42.8155V24.3168Z" fill="#0B251C"/>
<path d="M58.599 22.3266C57.1859 22.3266 56.4496 21.0926 56.4496 19.2417C56.4496 17.3907 57.1859 16.1369 58.599 16.1369C60.0121 16.1369 60.7684 17.3907 60.7684 19.2417C60.7684 21.0926 60.0121 22.3266 58.599 22.3266ZM58.6189 24.6352C61.9028 24.6352 64.0523 22.3067 64.0523 19.2417C64.0523 16.1767 61.9028 13.8481 58.6189 13.8481C55.3549 13.8481 53.1656 16.1767 53.1656 19.2417C53.1656 22.3067 55.3549 24.6352 58.6189 24.6352Z" fill="#0B251C"/>
<path d="M69.7364 27.8395C71.249 27.8395 72.5825 27.5012 73.4781 26.7051C74.2941 25.9687 74.8314 24.8542 74.8314 23.3217V14.1268H71.7267V15.2214H71.6868C71.0898 14.3656 70.1743 13.8282 68.8209 13.8282C66.2933 13.8282 64.5419 15.9379 64.5419 18.9232C64.5419 22.0479 66.6714 23.7595 68.9602 23.7595C70.1942 23.7595 70.9704 23.262 71.5674 22.5853H71.647V23.6003C71.647 24.8343 71.0699 25.5508 69.6966 25.5508C68.6219 25.5508 68.0845 25.093 67.9054 24.5556H64.7608C65.0792 26.6852 66.9302 27.8395 69.7364 27.8395ZM69.7165 21.3513C68.5025 21.3513 67.7064 20.3562 67.7064 18.8237C67.7064 17.2713 68.5025 16.2762 69.7165 16.2762C71.0699 16.2762 71.7864 17.4306 71.7864 18.8038C71.7864 20.2368 71.1296 21.3513 69.7165 21.3513Z" fill="#0B251C"/>
<path d="M81.2155 22.3266C79.8024 22.3266 79.066 21.0926 79.066 19.2417C79.066 17.3907 79.8024 16.1369 81.2155 16.1369C82.6285 16.1369 83.3845 17.3907 83.3845 19.2417C83.3845 21.0926 82.6285 22.3266 81.2155 22.3266ZM81.2354 24.6352C84.5189 24.6352 86.6684 22.3067 86.6684 19.2417C86.6684 16.1767 84.5189 13.8481 81.2354 13.8481C77.9714 13.8481 75.7821 16.1767 75.7821 19.2417C75.7821 22.3067 77.9714 24.6352 81.2354 24.6352Z" fill="#0B251C"/>
<path d="M87.6163 24.3168H90.8604V14.1267H87.6163V24.3168ZM87.6163 12.7137H90.8604V10.0865H87.6163V12.7137Z" fill="#0B251C"/>
<path d="M92.2676 27.6803H95.5117V23.262H95.5515C96.1884 24.1178 97.1238 24.6352 98.4374 24.6352C101.104 24.6352 102.876 22.5256 102.876 19.2218C102.876 16.1568 101.224 13.8282 98.517 13.8282C97.1238 13.8282 96.1287 14.4452 95.4321 15.3607H95.3724V14.1268H92.2676V27.6803ZM97.6015 22.1275C96.2083 22.1275 95.4122 20.9931 95.4122 19.3412C95.4122 17.6893 96.1287 16.4354 97.5418 16.4354C98.935 16.4354 99.5917 17.5898 99.5917 19.3412C99.5917 21.0727 98.8354 22.1275 97.6015 22.1275Z" fill="#0B251C"/>
<path d="M108.157 24.6352C110.824 24.6352 112.795 23.4809 112.795 21.2518C112.795 18.6446 110.685 18.1869 108.894 17.8883C107.6 17.6495 106.446 17.55 106.446 16.8335C106.446 16.1966 107.063 15.8981 107.859 15.8981C108.754 15.8981 109.371 16.1767 109.491 17.0922H112.476C112.317 15.0821 110.764 13.8282 107.879 13.8282C105.47 13.8282 103.48 14.9428 103.48 17.0922C103.48 19.4805 105.371 19.9582 107.142 20.2567C108.496 20.4955 109.73 20.595 109.73 21.5106C109.73 22.1673 109.113 22.5256 108.137 22.5256C107.063 22.5256 106.386 22.028 106.267 21.013H103.202C103.301 23.262 105.172 24.6352 108.157 24.6352Z" fill="#0B251C"/>
<path d="M117.201 24.6153C118.614 24.6153 119.51 24.0581 120.246 23.0629H120.306V24.3168H123.411V14.1267H120.167V19.8188C120.167 21.0329 119.49 21.8688 118.376 21.8688C117.341 21.8688 116.843 21.2518 116.843 20.1373V14.1267H113.619V20.814C113.619 23.0828 114.853 24.6153 117.201 24.6153Z" fill="#0B251C"/>
<path d="M124.822 24.3168H128.066V18.6048C128.066 17.3908 128.663 16.5349 129.678 16.5349C130.654 16.5349 131.111 17.1718 131.111 18.2665V24.3168H134.356V18.6048C134.356 17.3908 134.933 16.5349 135.968 16.5349C136.943 16.5349 137.401 17.1718 137.401 18.2665V24.3168H140.645V17.6893C140.645 15.4005 139.49 13.8282 137.182 13.8282C135.868 13.8282 134.773 14.3855 133.977 15.6194H133.938C133.42 14.5248 132.405 13.8282 131.072 13.8282C129.599 13.8282 128.624 14.5248 127.987 15.5796H127.927V14.1268H124.822V24.3168Z" fill="#0B251C"/>
<path fill-rule="evenodd" clip-rule="evenodd" d="M16.9621 33.4388C26.122 33.4388 33.5475 26.0132 33.5475 16.8534C33.5475 7.69358 26.122 0.268066 16.9621 0.268066C7.80228 0.268066 0.37677 7.69358 0.37677 16.8534C0.37677 26.0132 7.80228 33.4388 16.9621 33.4388ZM19.5221 13.0824C20.9358 11.6686 20.9358 9.37638 19.5221 7.96256C18.1082 6.54876 15.8161 6.54876 14.4022 7.96256C12.9885 9.37638 12.9885 11.6686 14.4022 13.0824L16.9621 15.6423L19.5221 13.0824ZM20.7332 19.4133C22.147 20.8272 24.4392 20.8272 25.853 19.4133C27.2668 17.9995 27.2668 15.7073 25.853 14.2935C24.4392 12.8798 22.147 12.8798 20.7332 14.2935L18.1733 16.8535L20.7332 19.4133ZM19.5221 25.7443C20.9358 24.3305 20.9358 22.0383 19.5221 20.6245L16.9621 18.0646L14.4022 20.6245C12.9885 22.0383 12.9885 24.3305 14.4022 25.7443C15.8161 27.1581 18.1082 27.1581 19.5221 25.7443ZM8.07124 19.4133C6.65747 17.9995 6.65747 15.7073 8.07124 14.2935C9.48509 12.8798 11.7773 12.8798 13.1911 14.2935L15.751 16.8535L13.1911 19.4133C11.7773 20.8272 9.48509 20.8272 8.07124 19.4133Z" fill="#0B251C"/>
</g>
<defs>
<clipPath id="clip0_1_42">
<rect width="140.976" height="34" fill="white" transform="translate(0.292664)"/>
</clipPath>
</defs>
</svg>
